# File created by Blade
# Date/Time:  Thu Jan 22 18:25:10 2015
# Frame Rate: 120.000 fps
#------------------------------------------------------
:FULLY-SPECIFIED
:DEGREES
2332
root -3.126175 33.065281 -0.348929 7.560433 -2.263906 2.724463
RightUpLeg -1.136016 -5.310350 -1.640474
RightLeg 0.003556 -0.000000 -0.000000
RightFoot -12.294936 -3.089303 2.681940
RightToeBase 5.866706 -0.000000 -0.000000
LeftUpLeg -1.835603 3.351235 0.976607
LeftLeg 2.792426 -0.000000 -0.000000
LeftFoot -12.027778 2.823379 -9.817223
LeftToeBase 8.820755 -0.000000 -0.000000
Spine -12.538288 8.301873 -2.960787
RightShoulder 1.354068 17.064282 -33.633170
RightArm 83.093692 -25.236367 55.253402
RightForeArm 1.318285 -0.000000 72.714559
RightHand 11.882266 -0.000000 3.703904
RightHandThumb1 -24.326973 -0.000000 -32.862282
LeftShoulder -10.090779 -3.679937 19.048513
LeftArm 38.051656 36.532175 -63.308393
LeftForeArm -5.700610 -0.000000 71.958704
LeftHand -5.268649 -0.000000 -12.529979
LeftHandThumb1 -26.253704 0.000000 33.147579
Head 1.832092 -4.824081 -0.435756
2333
root -3.124931 33.066331 -0.358837 7.581327 -2.444258 2.700245
RightUpLeg -1.208518 -5.187085 -1.637331
RightLeg 0.008267 -0.000000 -0.000000
RightFoot -12.243673 -3.030876 2.666941
RightToeBase 5.847816 -0.000000 -0.000000
LeftUpLeg -1.845315 3.453688 0.974635
LeftLeg 2.794838 -0.000000 -0.000000
LeftFoot -12.043825 2.881278 -9.893384
LeftToeBase 8.746826 -0.000000 -0.000000
Spine -12.505457 8.234705 -2.916136
RightShoulder 1.177830 16.177511 -33.280019
RightArm 82.696693 -24.956921 55.037752
RightForeArm 1.228788 -0.000000 72.184244
RightHand 11.643140 0.000000 3.498912
RightHandThumb1 -24.326973 -0.000000 -32.862282
LeftShoulder -10.255911 -3.455822 19.062312
LeftArm 37.873127 36.191547 -62.603991
LeftForeArm -3.756509 0.000000 70.744644
LeftHand -4.738250 -0.000000 -13.300365
LeftHandThumb1 -26.253704 0.000000 33.147579
Head 1.636290 -4.601001 -0.448048
2334
root -3.122522 33.066893 -0.370731 7.631410 -2.606327 2.675865
RightUpLeg -1.316799 -5.062463 -1.631292
RightLeg 0.027922 -0.000000 -0.000000
RightFoot -12.217351 -2.981331 2.672658
RightToeBase 5.896630 -0.000000 -0.000000
LeftUpLeg -1.892457 3.538887 0.968632
LeftLeg 2.801983 -0.000000 -0.000000
LeftFoot -12.076907 2.970209 -9.901612
LeftToeBase 8.774951 -0.000000 -0.000000
Spine -12.500355 8.153362 -2.866634
RightShoulder 0.999855 15.455736 -32.951543
RightArm 82.056471 -24.782749 55.010377
RightForeArm 0.989248 -0.000000 71.735399
RightHand 11.543741 0.000000 3.341996
RightHandThumb1 -24.326973 -0.000000 -32.862282
LeftShoulder -10.411736 -3.242564 19.065304
LeftArm 37.769038 36.015794 -61.733888
LeftForeArm -2.466455 -0.000000 69.591704
LeftHand -4.066382 -0.000000 -13.932234
LeftHandThumb1 -26.253704 0.000000 33.147579
Head 1.441621 -4.371110 -0.480657
2335
root -3.120784 33.068180 -0.381072 7.655009 -2.785938 2.658813
RightUpLeg -1.397391 -4.910710 -1.634402
RightLeg 0.042292 -0.000000 -0.000000
RightFoot -12.180618 -2.955723 2.661596
RightToeBase 5.902097 -0.000000 -0.000000
LeftUpLeg -1.898913 3.614174 0.957781
LeftLeg 2.791882 -0.000000 -0.000000
LeftFoot -12.096520 3.074377 -9.918819
LeftToeBase 8.784218 -0.000000 -0.000000
Spine -12.448732 8.059221 -2.830403
RightShoulder 0.828019 14.642508 -32.579713
RightArm 81.478870 -24.543305 54.946103
RightForeArm 0.706301 -0.000000 71.396411
RightHand 11.384227 0.000000 3.239768
RightHandThumb1 -24.326973 -0.000000 -32.862282
LeftShoulder -10.613731 -2.972120 19.052120
LeftArm 37.756571 35.797128 -60.836204
LeftForeArm -0.380666 -0.000000 68.462938
LeftHand -4.018300 -0.000000 -13.389513
LeftHandThumb1 -26.253704 0.000000 33.147579
Head 1.194232 -4.109619 -0.476630
2336
root -3.117241 33.069584 -0.391309 7.683475 -2.940741 2.642617
RightUpLeg -1.475123 -4.834903 -1.639517
RightLeg 0.048949 -0.000000 -0.000000
RightFoot -12.143224 -2.865262 2.662023
RightToeBase 5.909502 -0.000000 -0.000000
LeftUpLeg -1.920550 3.675452 0.945043
LeftLeg 2.792828 -0.000000 -0.000000
LeftFoot -12.118942 3.176567 -9.911480
LeftToeBase 8.775457 -0.000000 -0.000000
Spine -12.385559 7.982879 -2.812186
RightShoulder 0.555689 13.828250 -32.204446
RightArm 80.875267 -24.352642 54.908388
RightForeArm 0.513147 -0.000000 71.150589
RightHand 11.127463 -0.000000 3.194728
RightHandThumb1 -24.326973 -0.000000 -32.862282
LeftShoulder -10.803977 -2.659865 19.043003
LeftArm 37.822561 35.523276 -59.920227
LeftForeArm 1.938629 -0.000000 67.354914
LeftHand -3.628678 0.000000 -13.881017
LeftHandThumb1 -26.253704 0.000000 33.147579
Head 0.897091 -3.892398 -0.420830
2337
root -3.118912 33.069648 -0.398480 7.657354 -3.130410 2.614268
RightUpLeg -1.493755 -4.702589 -1.628209
RightLeg 0.044070 -0.000000 -0.000000
RightFoot -12.093376 -2.823654 2.645683
RightToeBase 5.894605 -0.000000 -0.000000
LeftUpLeg -1.867456 3.811731 0.953355
LeftLeg 2.779094 -0.000000 -0.000000
LeftFoot -12.144548 3.226271 -9.928264
LeftToeBase 8.777130 -0.000000 -0.000000
Spine -12.248639 7.784493 -2.727611
RightShoulder 0.410860 13.125540 -31.816616
RightArm 80.260687 -24.157164 54.853139
RightForeArm 0.498819 -0.000000 70.874336
RightHand 11.087050 -0.000000 3.188688
RightHandThumb1 -24.326973 -0.000000 -32.862282
LeftShoulder -11.135287 -2.277436 19.008028
LeftArm 37.925270 35.165352 -58.979798
LeftForeArm 4.102270 -0.000000 66.256116
LeftHand -3.364623 0.000000 -14.766546
LeftHandThumb1 -26.253704 0.000000 33.147579
Head 0.574435 -3.537094 -0.437787
2338
root -3.122230 33.070241 -0.405223 7.672099 -3.366132 2.589109
RightUpLeg -1.569462 -4.501658 -1.618379
RightLeg 0.062139 -0.000000 -0.000000
RightFoot -12.054481 -2.798675 2.637490
RightToeBase 5.887431 -0.000000 -0.000000
LeftUpLeg -1.834473 3.992845 0.956358
LeftLeg 2.738582 -0.000000 -0.000000
LeftFoot -12.152322 3.273664 -9.957850
LeftToeBase 8.792908 -0.000000 -0.000000
Spine -12.210465 7.831667 -2.778861
RightShoulder 0.123203 12.199258 -31.326786
RightArm 79.687837 -23.870803 54.707238
RightForeArm 0.412008 -0.000000 70.707631
RightHand 10.885336 0.000000 3.203052
RightHandThumb1 -24.326973 -0.000000 -32.862282
LeftShoulder -11.235916 -1.999447 19.097393
LeftArm 38.009576 34.839645 -58.162885
LeftForeArm 6.072554 0.000000 64.965564
LeftHand -3.004480 -0.000000 -15.380670
LeftHandThumb1 -26.253704 0.000000 33.147579
Head 0.355536 -3.422173 -0.291376
2339
root -3.115581 33.072125 -0.416976 7.704366 -3.500960 2.567230
RightUpLeg -1.653610 -4.420497 -1.622232
RightLeg 0.077304 -0.000000 -0.000000
RightFoot -12.007677 -2.733288 2.620713
RightToeBase 5.849576 -0.000000 -0.000000
LeftUpLeg -1.869944 4.033859 0.943451
LeftLeg 2.747939 -0.000000 -0.000000
LeftFoot -12.178393 3.392341 -9.925756
LeftToeBase 8.786258 -0.000000 -0.000000
Spine -12.152891 7.741160 -2.737661
RightShoulder -0.144769 11.301571 -30.891104
RightArm 79.123474 -23.582840 54.510017
RightForeArm 0.455707 0.000000 70.590927
RightHand 10.711103 -0.000000 3.287057
RightHandThumb1 -24.326973 -0.000000 -32.862282
LeftShoulder -11.348580 -1.734526 19.113566
LeftArm 38.055314 34.485026 -57.381962
LeftForeArm 7.444744 0.000000 63.639135
LeftHand -2.815705 -0.000000 -16.058780
LeftHandThumb1 -26.253704 0.000000 33.147579
Head 0.098949 -3.243113 -0.296684
2340
root -3.109711 33.073288 -0.427861 7.745734 -3.621689 2.539284
RightUpLeg -1.737999 -4.378474 -1.614595
RightLeg 0.080570 -0.000000 -0.000000
RightFoot -11.955539 -2.641931 2.625661
RightToeBase 5.848110 -0.000000 -0.000000
LeftUpLeg -1.919214 4.086735 0.940723
LeftLeg 2.767371 -0.000000 -0.000000
LeftFoot -12.226539 3.484002 -9.884390
LeftToeBase 8.861859 -0.000000 -0.000000
Spine -12.110312 7.602783 -2.670831
RightShoulder -0.378083 10.421418 -30.469768
RightArm 78.547499 -23.311746 54.373869
RightForeArm 0.553799 0.000000 70.436468
RightHand 10.590682 -0.000000 3.297636
RightHandThumb1 -24.326973 -0.000000 -32.862282
LeftShoulder -11.551208 -1.372929 19.092500
LeftArm 38.296732 34.067786 -56.520361
LeftForeArm 8.282678 0.000000 62.067273
LeftHand -2.348164 -0.000000 -16.735846
LeftHandThumb1 -26.253704 0.000000 33.147579
Head -0.134369 -3.009765 -0.344606
2341
root -3.105877 33.074334 -0.437314 7.761195 -3.756577 2.526533
RightUpLeg -1.802477 -4.314329 -1.619511
RightLeg 0.095753 -0.000000 -0.000000
RightFoot -11.924639 -2.567006 2.622623
RightToeBase 5.869439 -0.000000 -0.000000
LeftUpLeg -1.928806 4.151156 0.927167
LeftLeg 2.769274 -0.000000 -0.000000
LeftFoot -12.235162 3.545288 -9.942354
LeftToeBase 8.783040 -0.000000 -0.000000
Spine -12.034145 7.477122 -2.631484
RightShoulder -0.614915 9.540947 -30.028154
RightArm 77.946730 -23.048909 54.260136
RightForeArm 0.714348 -0.000000 70.289507
RightHand 10.628371 -0.000000 3.256722
RightHandThumb1 -24.326973 -0.000000 -32.862282
LeftShoulder -11.692711 -1.219387 19.153569
LeftArm 38.271857 33.753612 -55.897852
LeftForeArm 8.581864 -0.000000 60.449022
LeftHand -2.333084 -0.000000 -17.007185
LeftHandThumb1 -26.253704 0.000000 33.147579
Head -0.380320 -2.785534 -0.367698
